<svg id="Layer_1" data-name="Layer 1" xmlns="http://www.w3.org/2000/svg" viewBox="0 0 457.4 118.04"><defs><style>.cls-1{fill:#4c4c4c;}.cls-2{fill:#96c346;}.cls-3{fill:#fff;}</style></defs><path class="cls-1" d="M21.09,52.59a7.25,7.25,0,0,1,2-5.14,6.75,6.75,0,0,1,5.14-2.14,7.37,7.37,0,0,1,5.33,2.14,6.92,6.92,0,0,1,2.21,5.14,6.32,6.32,0,0,1-2.21,4.94,7.77,7.77,0,0,1-5.33,1.95,7.1,7.1,0,0,1-5.14-1.95A6.6,6.6,0,0,1,21.09,52.59ZM23.3,72.35H33.7v65H23.3Z" transform="translate(-21.09 -45.31)"/><path class="cls-1" d="M55.93,72.35h7.15l2,7.8h.52a19.89,19.89,0,0,1,7.73-7,23.74,23.74,0,0,1,10.86-2.4q13,0,19.37,7.67t6.37,25.09a47.31,47.31,0,0,1-2.15,14.75,32.28,32.28,0,0,1-6,11.12,26.54,26.54,0,0,1-9.43,7A29.86,29.86,0,0,1,80,138.91a38.88,38.88,0,0,1-7.61-.59,30.93,30.93,0,0,1-6-2v27H55.93Zm26.26,7.54q-6.63,0-10.47,3.44T66.33,93.8V126a17.36,17.36,0,0,0,5.33,2.79,26.22,26.22,0,0,0,7.93,1,17.13,17.13,0,0,0,14.23-6.7q5.27-6.69,5.27-19.69a48,48,0,0,0-.91-9.69,21.21,21.21,0,0,0-2.93-7.41,13.92,13.92,0,0,0-5.2-4.74A16.56,16.56,0,0,0,82.19,79.89Z" transform="translate(-21.09 -45.31)"/><path class="cls-1" d="M233.06,72.35h7.15l1.95,7.8h.52a19.89,19.89,0,0,1,7.73-7,23.72,23.72,0,0,1,10.86-2.4q13,0,19.37,7.67T287,103.55a47.31,47.31,0,0,1-2.15,14.75,32.28,32.28,0,0,1-6,11.12,26.63,26.63,0,0,1-9.43,7,29.86,29.86,0,0,1-12.28,2.47,38.81,38.81,0,0,1-7.61-.59,30.93,30.93,0,0,1-6-2v27h-10.4Zm26.26,7.54q-6.63,0-10.47,3.44T243.46,93.8V126a17.36,17.36,0,0,0,5.33,2.79,26.22,26.22,0,0,0,7.93,1,17.13,17.13,0,0,0,14.23-6.7q5.26-6.69,5.27-19.69a48,48,0,0,0-.91-9.69,21.4,21.4,0,0,0-2.93-7.41,14,14,0,0,0-5.2-4.74A16.56,16.56,0,0,0,259.32,79.89Z" transform="translate(-21.09 -45.31)"/><path class="cls-1" d="M303.38,52.59a7.21,7.21,0,0,1,2-5.14,6.72,6.72,0,0,1,5.13-2.14,7.37,7.37,0,0,1,5.33,2.14,6.88,6.88,0,0,1,2.21,5.14,6.29,6.29,0,0,1-2.21,4.94,7.77,7.77,0,0,1-5.33,1.95,7.06,7.06,0,0,1-5.13-1.95A6.57,6.57,0,0,1,303.38,52.59Zm2.21,19.76H316v65h-10.4Z" transform="translate(-21.09 -45.31)"/><path class="cls-1" d="M349.79,121.36q0,4.55,1.56,6.5a5.34,5.34,0,0,0,4.42,2,28.18,28.18,0,0,0,3.64-.26,21.79,21.79,0,0,0,4.42-1.17l1.17,8.19a21.92,21.92,0,0,1-5.78,1.69,38.34,38.34,0,0,1-6.44.65,14,14,0,0,1-9.62-3.32q-3.77-3.32-3.77-11.24v-78h10.4Z" transform="translate(-21.09 -45.31)"/><path class="cls-1" d="M372.54,104.85q0-16.51,7.35-25.29T401,70.79a31,31,0,0,1,12.68,2.4,23.09,23.09,0,0,1,8.9,6.89,29.87,29.87,0,0,1,5.2,10.79,53.84,53.84,0,0,1,1.69,14q0,16.5-7.34,25.28T401,138.91a30.93,30.93,0,0,1-12.67-2.41,23,23,0,0,1-8.91-6.89,29.79,29.79,0,0,1-5.2-10.79A53.76,53.76,0,0,1,372.54,104.85Zm10.79,0a45.25,45.25,0,0,0,1,9.49,25,25,0,0,0,3.05,7.93,16.57,16.57,0,0,0,5.46,5.46,15.38,15.38,0,0,0,8.19,2.08q17.69.12,17.68-25a45.81,45.81,0,0,0-1-9.62,24.85,24.85,0,0,0-3.06-7.93,15.94,15.94,0,0,0-5.46-5.4,15.73,15.73,0,0,0-8.19-2Q383.33,79.76,383.33,104.85Z" transform="translate(-21.09 -45.31)"/><path class="cls-1" d="M437.28,72.35h10.14V59.48l10.4-3V72.35H475.5v9.1H457.82v36c0,4.5.56,7.69,1.69,9.55s3,2.8,5.72,2.8a19.68,19.68,0,0,0,5.72-.72q2.34-.71,5.2-1.88l2.34,7.93a41,41,0,0,1-7.67,2.73,37,37,0,0,1-9,1q-7.94,0-11.18-4.49t-3.25-15v-38H437.28Z" transform="translate(-21.09 -45.31)"/><circle class="cls-2" cx="149.93" cy="58.72" r="47.5"/><path class="cls-3" d="M194,99.91a6,6,0,0,1,0,8.64l-3,2.88a6.54,6.54,0,0,1-9,0L156.93,87.31a6,6,0,0,1,0-8.64l3-2.88a6.51,6.51,0,0,1,9,0Z" transform="translate(-21.09 -45.31)"/><path class="cls-3" d="M194.06,100a6,6,0,0,1,.16,8.64L169.6,133.14a6.54,6.54,0,0,1-9,.15l-3-2.83a6,6,0,0,1-.15-8.64L182,97.28a6.53,6.53,0,0,1,9-.15Z" transform="translate(-21.09 -45.31)"/></svg>